<svg width="485" height="518" viewBox="0 0 485 518" fill="none" xmlns="http://www.w3.org/2000/svg">
<g filter="url(#filter0_d_210_590)">
<path d="M289.153 306.21C312.631 302.343 325.57 276.731 349.58 277.002C369.329 277.225 381.543 295.025 392.966 307.383C403.789 319.093 410.106 332.851 414.156 346.865C417.891 359.79 417.414 373.048 415.751 386.225C414.204 398.476 414.387 412.03 404.691 421.838C394.736 431.907 375.829 433.451 362.125 440.468C351.772 445.769 343.932 453.308 333.368 458.358C322.541 463.532 309.38 464.991 298.976 470.653C281.116 480.373 271.64 500.664 250.096 503.677C231.961 506.212 215.661 493.286 201.442 484.29C187.639 475.558 179.808 462.869 168.641 452.147C156.824 440.8 134.524 433.13 133.079 418.65C131.544 403.264 152.72 392.129 161.259 378.157C167.72 367.586 169.156 355.482 177.616 345.777C185.863 336.317 199.421 330.743 209.727 322.556C221.041 313.569 226.128 297.983 241.861 294.745C257.966 291.43 272.85 308.896 289.153 306.21Z" fill="#FF4D9C"/>
</g>
<g filter="url(#filter1_d_210_590)">
<path d="M321.216 94.8791C350.179 104.767 364.294 124.707 382.358 141.984C401.732 160.515 428.213 177.521 430.714 199.61C433.335 222.764 417.648 245.387 396.211 264.33C374.615 283.413 346.524 302.936 309.622 306.61C273.686 310.188 245.036 288.084 209.6 282.909C175.739 277.963 134.835 290.833 107.815 277.137C80.8937 263.49 77.8911 237.884 78.0029 216.204C78.1009 197.207 100.442 182.04 108.401 163.707C117.292 143.226 103.913 117.791 127.378 102.468C150.833 87.152 190.471 89.3477 224.303 88.0232C257.421 86.7267 292.087 84.9342 321.216 94.8791Z" fill="#6842FF"/>
</g>
<g opacity="0.863549" filter="url(#filter2_d_210_590)">
<path d="M134.956 246.041C170.333 245.271 209.84 255.207 228.634 291.923C247.327 328.441 234.439 374.56 221.18 414.485C209.1 450.861 190.357 484.534 160.219 497.934C129.922 511.405 97.5854 500.822 69.2334 482.046C38.0828 461.417 2.41887 435.18 0.102372 391.901C-2.15472 349.731 33.3915 323.583 59.2544 295.609C81.8191 271.203 104.856 246.696 134.956 246.041Z" fill="#3C9BF2"/>
</g>
<g filter="url(#filter3_d_210_590)">
<rect x="19" y="193" width="142" height="148" rx="48" fill="#9747FF"/>
<rect x="20" y="194" width="140" height="146" rx="47" stroke="black" stroke-width="2"/>
</g>
<g clip-path="url(#clip0_210_590)">
<path d="M94.4479 253.45L104.462 259.298C104.822 259.503 104.835 260.073 104.462 260.278L92.5629 267.232C92.2029 267.444 91.7775 267.431 91.4436 267.232L79.5446 260.278C79.1781 260.08 79.1716 259.497 79.5446 259.298L89.5521 253.45V242L64 256.927V286.782L73.798 281.06V269.364C73.7915 268.947 74.2758 268.649 74.6358 268.874L86.5349 275.828C86.8949 276.04 87.0977 276.417 87.0977 276.808V290.709C87.1042 291.126 86.6199 291.424 86.2599 291.199L76.2459 285.351L66.4479 291.073L92 306L117.552 291.073L107.754 285.351L97.7401 291.199C97.3866 291.417 96.8892 291.133 96.9022 290.709V276.808C96.9022 276.391 97.1314 276.02 97.4651 275.828L109.364 268.874C109.718 268.656 110.215 268.934 110.202 269.364V281.06L120 286.782V256.927L94.4479 242V253.45Z" fill="black"/>
</g>
<g filter="url(#filter4_d_210_590)">
<rect x="185" width="142" height="148" fill="#DD7DFF"/>
<rect x="186" y="1" width="140" height="146" stroke="black" stroke-width="2"/>
</g>
<g filter="url(#filter5_d_210_590)">
<rect x="280" y="345" width="142" height="148" rx="11" fill="#FFD600"/>
<rect x="281" y="346" width="140" height="146" rx="10" stroke="black" stroke-width="2"/>
</g>
<g filter="url(#filter6_d_210_590)">
<path d="M90 54L146.292 150H33.7083L90 54Z" fill="#00FF75"/>
<path d="M35.454 149L90 55.977L144.546 149H35.454Z" stroke="black" stroke-width="2"/>
</g>
<g filter="url(#filter7_d_210_590)">
<path d="M161 370L217.292 466H104.708L161 370Z" fill="#F03986"/>
</g>
<g filter="url(#filter8_d_210_590)">
<path d="M254.5 173L282.972 213.201L336.766 223.787L300.569 259.219L305.343 305.963L254.5 287.66L203.657 305.963L208.431 259.219L172.234 223.787L226.028 213.201L254.5 173Z" fill="#FF63DD"/>
<path d="M254.5 174.73L282.156 213.779L282.387 214.105L282.779 214.182L334.709 224.402L299.87 258.505L299.525 258.841L299.574 259.321L304.187 304.484L254.839 286.719L254.5 286.597L254.161 286.719L204.813 304.484L209.426 259.321L209.475 258.841L209.13 258.505L174.291 224.402L226.221 214.182L226.613 214.105L226.844 213.779L254.5 174.73Z" stroke="black" stroke-width="2"/>
</g>
<g clip-path="url(#clip1_210_590)">
<path d="M279.886 220.01C280.185 220.343 280.414 220.719 280.573 221.116C280.733 221.514 280.812 221.954 280.812 222.427V222.438V232.75C280.812 234.651 279.388 236.188 277.625 236.188C275.862 236.188 274.438 234.651 274.438 232.75V230.741L263.939 242.053C262.763 243.32 260.871 243.406 259.606 242.235L250.531 233.835L241.447 242.235C240.112 243.471 238.1 243.299 236.954 241.859C235.809 240.42 235.968 238.25 237.303 237.015L248.459 226.702C249.655 225.596 251.418 225.596 252.613 226.702L261.528 234.941L269.925 225.875H268.062C266.299 225.875 264.875 224.339 264.875 222.438C264.875 220.536 266.299 219 268.062 219H277.625C278.502 219 279.298 219.387 279.876 219.999L279.886 220.01V220.01ZM233 251.656C233 248.81 235.142 246.5 237.781 246.5H279.219C281.858 246.5 284 248.81 284 251.656V268.844C284 271.69 281.858 274 279.219 274H237.781C235.142 274 233 271.69 233 268.844V251.656ZM237.781 263.688V268.844H242.562C242.562 265.997 240.421 263.688 237.781 263.688ZM242.562 251.656H237.781V256.812C240.421 256.812 242.562 254.503 242.562 251.656ZM279.219 263.688C276.579 263.688 274.438 265.997 274.438 268.844H279.219V263.688ZM274.438 251.656C274.438 254.503 276.579 256.812 279.219 256.812V251.656H274.438ZM264.875 260.25C264.875 256.458 262.016 253.375 258.5 253.375C254.984 253.375 252.125 256.458 252.125 260.25C252.125 264.042 254.984 267.125 258.5 267.125C262.016 267.125 264.875 264.042 264.875 260.25Z" fill="black"/>
</g>
<path d="M108 119C108 122.956 106.827 126.822 104.629 130.111C102.432 133.4 99.3079 135.964 95.6539 137.478C91.9989 138.991 87.9779 139.387 84.0979 138.616C80.2189 137.844 76.6549 135.939 73.8579 133.142C71.0609 130.345 69.1559 126.781 68.3839 122.902C67.6129 119.022 68.0089 115.001 69.5219 111.346C71.0359 107.692 73.5999 104.568 76.8889 102.371C80.1779 100.173 84.0439 99 87.9999 99V119H108Z" fill="black"/>
<path d="M112 115C112 112.374 111.483 109.773 110.478 107.346C109.472 104.92 107.999 102.715 106.142 100.858C104.285 99.001 102.08 97.528 99.6539 96.522C97.2269 95.517 94.6259 95 91.9999 95V115H112Z" fill="black"/>
<path d="M291 99V56H226V99H291Z" fill="black"/>
<path fill-rule="evenodd" clip-rule="evenodd" d="M219 50H298V105H219V50ZM232.167 62.2222V92.7778H284.833V62.2222H232.167Z" fill="black"/>
<path fill-rule="evenodd" clip-rule="evenodd" d="M245 50H232V44H245V50Z" fill="black"/>
<path d="M278 77.5C278 87.7166 269.269 96 258.5 96C247.731 96 239 87.7166 239 77.5C239 67.2834 247.731 59 258.5 59C269.269 59 278 67.2834 278 77.5Z" fill="#9747FF"/>
<path d="M272 77.5C272 84.4031 265.955 90 258.5 90C251.045 90 245 84.4031 245 77.5C245 70.5969 251.045 65 258.5 65C265.955 65 272 70.5969 272 77.5Z" fill="black"/>
<path d="M353.097 382.157C350.972 381.544 348.759 382.782 348.147 384.907L332.147 440.907C331.534 443.032 332.772 445.244 334.897 445.857C337.022 446.469 339.234 445.232 339.847 443.107L355.847 387.107C356.459 384.982 355.222 382.769 353.097 382.157ZM363.172 397.169C361.609 398.732 361.609 401.269 363.172 402.832L374.334 414.007L363.159 425.182C361.597 426.744 361.597 429.282 363.159 430.844C364.722 432.407 367.259 432.407 368.822 430.844L382.822 416.844C384.384 415.282 384.384 412.744 382.822 411.182L368.822 397.182C367.259 395.619 364.722 395.619 363.159 397.182L363.172 397.169ZM324.834 397.169C323.272 395.607 320.734 395.607 319.172 397.169L305.172 411.169C303.609 412.732 303.609 415.269 305.172 416.832L319.172 430.832C320.734 432.394 323.272 432.394 324.834 430.832C326.397 429.269 326.397 426.732 324.834 425.169L313.659 414.007L324.834 402.832C326.397 401.269 326.397 398.732 324.834 397.169Z" fill="black"/>
<g filter="url(#filter9_d_210_590)">
<ellipse cx="417" cy="174" rx="58" ry="59" fill="#F03986"/>
<path d="M474 174C474 206.049 448.464 232 417 232C385.536 232 360 206.049 360 174C360 141.951 385.536 116 417 116C448.464 116 474 141.951 474 174Z" stroke="black" stroke-width="2"/>
</g>
<g filter="url(#filter10_d_210_590)">
<path d="M443.388 139.794C444.4 140.544 445 141.744 445 143.007V152.007V185.007C445 190.532 439.625 195.007 433 195.007C426.375 195.007 421 190.532 421 185.007C421 179.482 426.375 175.007 433 175.007C434.4 175.007 435.75 175.207 437 175.582V157.382L405 166.982V193.007C405 198.532 399.625 203.007 393 203.007C386.375 203.007 381 198.532 381 193.007C381 187.482 386.375 183.007 393 183.007C394.4 183.007 395.75 183.207 397 183.582V164.007V155.007C397 153.244 398.163 151.682 399.85 151.169L439.85 139.169C441.062 138.807 442.375 139.032 443.388 139.794V139.794Z" fill="black"/>
</g>
<g clip-path="url(#clip2_210_590)">
<path d="M171.5 435C171.5 437.428 171.369 439.769 171.139 442H150.861C150.62 439.769 150.5 437.428 150.5 435C150.5 432.572 150.631 430.231 150.861 428H171.139C171.38 430.231 171.5 432.572 171.5 435ZM174.65 428H188.114C188.694 430.242 189 432.583 189 435C189 437.417 188.694 439.758 188.114 442H174.65C174.88 439.747 175 437.406 175 435C175 432.594 174.88 430.253 174.65 428ZM186.966 424.5H174.202C173.108 417.511 170.942 411.659 168.153 407.919C176.717 410.183 183.684 416.395 186.955 424.5H186.966ZM170.658 424.5H151.342C152.009 420.519 153.037 416.997 154.295 414.142C155.444 411.561 156.723 409.691 157.959 408.509C159.184 407.35 160.202 407 161 407C161.798 407 162.816 407.35 164.041 408.509C165.277 409.691 166.556 411.561 167.705 414.142C168.973 416.986 170.002 420.508 170.658 424.5V424.5ZM147.798 424.5H135.034C138.316 416.395 145.272 410.183 153.847 407.919C151.058 411.659 148.892 417.511 147.798 424.5V424.5ZM133.886 428H147.35C147.12 430.253 147 432.594 147 435C147 437.406 147.12 439.747 147.35 442H133.886C133.306 439.758 133 437.417 133 435C133 432.583 133.306 430.242 133.886 428ZM154.295 455.847C153.027 453.003 152.009 449.481 151.342 445.5H170.658C169.991 449.481 168.962 453.003 167.705 455.847C166.556 458.428 165.277 460.298 164.041 461.48C162.816 462.65 161.798 463 161 463C160.202 463 159.184 462.65 157.959 461.491C156.723 460.309 155.444 458.439 154.295 455.858V455.847ZM147.798 445.5C148.892 452.489 151.058 458.341 153.847 462.081C145.272 459.817 138.316 453.605 135.034 445.5H147.798ZM186.966 445.5C183.684 453.605 176.728 459.817 168.164 462.081C170.953 458.341 173.108 452.489 174.212 445.5H186.966V445.5Z" fill="black"/>
</g>
<defs>
<filter id="filter0_d_210_590" x="133" y="277" width="298" height="241" filterUnits="userSpaceOnUse" color-interpolation-filters="sRGB">
<feFlood flood-opacity="0" result="BackgroundImageFix"/>
<feColorMatrix in="SourceAlpha" type="matrix" values="0 0 0 0 0 0 0 0 0 0 0 0 0 0 0 0 0 0 127 0" result="hardAlpha"/>
<feOffset dx="10" dy="10"/>
<feGaussianBlur stdDeviation="2"/>
<feComposite in2="hardAlpha" operator="out"/>
<feColorMatrix type="matrix" values="0 0 0 0 0.74 0 0 0 0 0.17575 0 0 0 0 0.412735 0 0 0 1 0"/>
<feBlend mode="normal" in2="BackgroundImageFix" result="effect1_dropShadow_210_590"/>
<feBlend mode="normal" in="SourceGraphic" in2="effect1_dropShadow_210_590" result="shape"/>
</filter>
<filter id="filter1_d_210_590" x="78" y="87" width="367" height="234" filterUnits="userSpaceOnUse" color-interpolation-filters="sRGB">
<feFlood flood-opacity="0" result="BackgroundImageFix"/>
<feColorMatrix in="SourceAlpha" type="matrix" values="0 0 0 0 0 0 0 0 0 0 0 0 0 0 0 0 0 0 127 0" result="hardAlpha"/>
<feOffset dx="10" dy="10"/>
<feGaussianBlur stdDeviation="2"/>
<feComposite in2="hardAlpha" operator="out"/>
<feColorMatrix type="matrix" values="0 0 0 0 0.74 0 0 0 0 0.17575 0 0 0 0 0.412735 0 0 0 1 0"/>
<feBlend mode="normal" in2="BackgroundImageFix" result="effect1_dropShadow_210_590"/>
<feBlend mode="normal" in="SourceGraphic" in2="effect1_dropShadow_210_590" result="shape"/>
</filter>
<filter id="filter2_d_210_590" x="0" y="246" width="252" height="272" filterUnits="userSpaceOnUse" color-interpolation-filters="sRGB">
<feFlood flood-opacity="0" result="BackgroundImageFix"/>
<feColorMatrix in="SourceAlpha" type="matrix" values="0 0 0 0 0 0 0 0 0 0 0 0 0 0 0 0 0 0 127 0" result="hardAlpha"/>
<feOffset dx="10" dy="10"/>
<feGaussianBlur stdDeviation="2"/>
<feComposite in2="hardAlpha" operator="out"/>
<feColorMatrix type="matrix" values="0 0 0 0 0.74 0 0 0 0 0.17575 0 0 0 0 0.412735 0 0 0 1 0"/>
<feBlend mode="normal" in2="BackgroundImageFix" result="effect1_dropShadow_210_590"/>
<feBlend mode="normal" in="SourceGraphic" in2="effect1_dropShadow_210_590" result="shape"/>
</filter>
<filter id="filter3_d_210_590" x="19" y="193" width="152" height="158" filterUnits="userSpaceOnUse" color-interpolation-filters="sRGB">
<feFlood flood-opacity="0" result="BackgroundImageFix"/>
<feColorMatrix in="SourceAlpha" type="matrix" values="0 0 0 0 0 0 0 0 0 0 0 0 0 0 0 0 0 0 127 0" result="hardAlpha"/>
<feOffset dx="10" dy="10"/>
<feComposite in2="hardAlpha" operator="out"/>
<feColorMatrix type="matrix" values="0 0 0 0 0 0 0 0 0 0 0 0 0 0 0 0 0 0 1 0"/>
<feBlend mode="normal" in2="BackgroundImageFix" result="effect1_dropShadow_210_590"/>
<feBlend mode="normal" in="SourceGraphic" in2="effect1_dropShadow_210_590" result="shape"/>
</filter>
<filter id="filter4_d_210_590" x="185" y="0" width="152" height="158" filterUnits="userSpaceOnUse" color-interpolation-filters="sRGB">
<feFlood flood-opacity="0" result="BackgroundImageFix"/>
<feColorMatrix in="SourceAlpha" type="matrix" values="0 0 0 0 0 0 0 0 0 0 0 0 0 0 0 0 0 0 127 0" result="hardAlpha"/>
<feOffset dx="10" dy="10"/>
<feComposite in2="hardAlpha" operator="out"/>
<feColorMatrix type="matrix" values="0 0 0 0 0 0 0 0 0 0 0 0 0 0 0 0 0 0 1 0"/>
<feBlend mode="normal" in2="BackgroundImageFix" result="effect1_dropShadow_210_590"/>
<feBlend mode="normal" in="SourceGraphic" in2="effect1_dropShadow_210_590" result="shape"/>
</filter>
<filter id="filter5_d_210_590" x="280" y="345" width="152" height="158" filterUnits="userSpaceOnUse" color-interpolation-filters="sRGB">
<feFlood flood-opacity="0" result="BackgroundImageFix"/>
<feColorMatrix in="SourceAlpha" type="matrix" values="0 0 0 0 0 0 0 0 0 0 0 0 0 0 0 0 0 0 127 0" result="hardAlpha"/>
<feOffset dx="10" dy="10"/>
<feComposite in2="hardAlpha" operator="out"/>
<feColorMatrix type="matrix" values="0 0 0 0 0 0 0 0 0 0 0 0 0 0 0 0 0 0 1 0"/>
<feBlend mode="normal" in2="BackgroundImageFix" result="effect1_dropShadow_210_590"/>
<feBlend mode="normal" in="SourceGraphic" in2="effect1_dropShadow_210_590" result="shape"/>
</filter>
<filter id="filter6_d_210_590" x="33.7083" y="54" width="122.583" height="106" filterUnits="userSpaceOnUse" color-interpolation-filters="sRGB">
<feFlood flood-opacity="0" result="BackgroundImageFix"/>
<feColorMatrix in="SourceAlpha" type="matrix" values="0 0 0 0 0 0 0 0 0 0 0 0 0 0 0 0 0 0 127 0" result="hardAlpha"/>
<feOffset dx="10" dy="10"/>
<feComposite in2="hardAlpha" operator="out"/>
<feColorMatrix type="matrix" values="0 0 0 0 0 0 0 0 0 0 0 0 0 0 0 0 0 0 1 0"/>
<feBlend mode="normal" in2="BackgroundImageFix" result="effect1_dropShadow_210_590"/>
<feBlend mode="normal" in="SourceGraphic" in2="effect1_dropShadow_210_590" result="shape"/>
</filter>
<filter id="filter7_d_210_590" x="104.708" y="370" width="126.583" height="106" filterUnits="userSpaceOnUse" color-interpolation-filters="sRGB">
<feFlood flood-opacity="0" result="BackgroundImageFix"/>
<feColorMatrix in="SourceAlpha" type="matrix" values="0 0 0 0 0 0 0 0 0 0 0 0 0 0 0 0 0 0 127 0" result="hardAlpha"/>
<feOffset dx="14" dy="10"/>
<feComposite in2="hardAlpha" operator="out"/>
<feColorMatrix type="matrix" values="0 0 0 0 0 0 0 0 0 0 0 0 0 0 0 0 0 0 1 0"/>
<feBlend mode="normal" in2="BackgroundImageFix" result="effect1_dropShadow_210_590"/>
<feBlend mode="normal" in="SourceGraphic" in2="effect1_dropShadow_210_590" result="shape"/>
</filter>
<filter id="filter8_d_210_590" x="172.234" y="173" width="174.533" height="142.963" filterUnits="userSpaceOnUse" color-interpolation-filters="sRGB">
<feFlood flood-opacity="0" result="BackgroundImageFix"/>
<feColorMatrix in="SourceAlpha" type="matrix" values="0 0 0 0 0 0 0 0 0 0 0 0 0 0 0 0 0 0 127 0" result="hardAlpha"/>
<feOffset dx="10" dy="10"/>
<feComposite in2="hardAlpha" operator="out"/>
<feColorMatrix type="matrix" values="0 0 0 0 0 0 0 0 0 0 0 0 0 0 0 0 0 0 1 0"/>
<feBlend mode="normal" in2="BackgroundImageFix" result="effect1_dropShadow_210_590"/>
<feBlend mode="normal" in="SourceGraphic" in2="effect1_dropShadow_210_590" result="shape"/>
</filter>
<filter id="filter9_d_210_590" x="359" y="115" width="126" height="128" filterUnits="userSpaceOnUse" color-interpolation-filters="sRGB">
<feFlood flood-opacity="0" result="BackgroundImageFix"/>
<feColorMatrix in="SourceAlpha" type="matrix" values="0 0 0 0 0 0 0 0 0 0 0 0 0 0 0 0 0 0 127 0" result="hardAlpha"/>
<feOffset dx="10" dy="10"/>
<feComposite in2="hardAlpha" operator="out"/>
<feColorMatrix type="matrix" values="0 0 0 0 0 0 0 0 0 0 0 0 0 0 0 0 0 0 1 0"/>
<feBlend mode="normal" in2="BackgroundImageFix" result="effect1_dropShadow_210_590"/>
<feBlend mode="normal" in="SourceGraphic" in2="effect1_dropShadow_210_590" result="shape"/>
</filter>
<filter id="filter10_d_210_590" x="381" y="139" width="78" height="78.0067" filterUnits="userSpaceOnUse" color-interpolation-filters="sRGB">
<feFlood flood-opacity="0" result="BackgroundImageFix"/>
<feColorMatrix in="SourceAlpha" type="matrix" values="0 0 0 0 0 0 0 0 0 0 0 0 0 0 0 0 0 0 127 0" result="hardAlpha"/>
<feOffset dx="10" dy="10"/>
<feGaussianBlur stdDeviation="2"/>
<feComposite in2="hardAlpha" operator="out"/>
<feColorMatrix type="matrix" values="0 0 0 0 0.74 0 0 0 0 0.17575 0 0 0 0 0.412735 0 0 0 1 0"/>
<feBlend mode="normal" in2="BackgroundImageFix" result="effect1_dropShadow_210_590"/>
<feBlend mode="normal" in="SourceGraphic" in2="effect1_dropShadow_210_590" result="shape"/>
</filter>
<clipPath id="clip0_210_590">
<rect width="56" height="64" fill="white" transform="translate(64 242)"/>
</clipPath>
<clipPath id="clip1_210_590">
<rect width="51" height="55" fill="white" transform="translate(233 219)"/>
</clipPath>
<clipPath id="clip2_210_590">
<rect width="56" height="56" fill="white" transform="translate(133 407)"/>
</clipPath>
</defs>
</svg>
