<svg width="648" height="125" viewBox="0 0 648 125" fill="none" xmlns="http://www.w3.org/2000/svg">
<rect x="90" y="24" width="49" height="43" fill="#DD7DFF"/>
<path d="M163 49.0818V53.8496V67.5433C163 69.5946 163.388 71.4241 164.275 73.0319C165.107 74.6951 166.271 75.9702 167.768 76.9127C169.265 77.8551 170.928 78.2987 172.757 78.2987H173.755C174.698 78.2987 175.474 78.0769 176.084 77.5225C176.694 77.0235 177.026 76.3583 177.026 75.5267C177.026 74.7505 176.749 74.0852 176.306 73.5308C175.862 73.0319 175.308 72.7547 174.642 72.7547H172.757C171.538 72.7547 170.54 72.2557 169.764 71.2578C168.932 70.2599 168.544 69.0402 168.544 67.5433V53.8496H173.256C174.033 53.8496 174.642 53.6279 175.141 53.1843C175.585 52.7408 175.862 52.1864 175.862 51.5211C175.862 50.8004 175.585 50.1906 175.141 49.7471C174.642 49.3035 174.033 49.0818 173.256 49.0818H168.544V41.0984C168.544 40.3223 168.267 39.657 167.768 39.1026C167.213 38.6036 166.548 38.3264 165.772 38.3264C164.94 38.3264 164.275 38.6036 163.776 39.1026C163.222 39.657 163 40.3223 163 41.0984V49.0818Z" fill="white"/>
<path d="M212.733 64.4387C213.176 63.9951 213.454 63.3853 213.454 62.6646C213.454 59.7817 212.899 57.176 211.79 54.903C210.682 52.6854 209.074 50.9113 207.023 49.6362C204.916 48.4165 202.476 47.7512 199.649 47.7512C196.766 47.7512 194.16 48.4165 191.887 49.7471C189.614 51.0776 187.84 52.9071 186.565 55.2356C185.29 57.5641 184.68 60.2252 184.68 63.1635C184.68 66.1573 185.345 68.763 186.676 71.0915C188.007 73.4199 189.892 75.2495 192.331 76.58C194.715 77.9106 197.431 78.5204 200.481 78.5204C202.144 78.5204 203.918 78.2432 205.803 77.5779C207.688 76.9681 209.24 76.1365 210.515 75.1386C211.07 74.6951 211.402 74.1407 211.402 73.4754C211.402 72.8101 211.07 72.1448 210.404 71.5904C209.961 71.2578 209.406 71.036 208.741 71.036C208.02 71.036 207.411 71.2578 206.912 71.6459C206.135 72.2557 205.138 72.7547 203.918 73.1427C202.698 73.5863 201.589 73.7526 200.481 73.7526C197.653 73.7526 195.269 72.9764 193.329 71.3687C191.388 69.8163 190.224 67.7096 189.836 65.1039H210.903C211.624 65.1039 212.234 64.8822 212.733 64.4387V64.4387ZM193.052 54.7367C194.715 53.2952 196.932 52.5191 199.649 52.5191C202.088 52.5191 204.029 53.2952 205.581 54.7367C207.078 56.2335 208.02 58.2294 208.353 60.6687H189.892C190.335 58.2294 191.388 56.2335 193.052 54.7367V54.7367Z" fill="white"/>
<path d="M250.888 63.1635C250.888 60.3361 250.168 57.675 248.837 55.3465C247.506 53.018 245.677 51.1331 243.348 49.8025C241.02 48.4719 238.47 47.7512 235.642 47.7512C232.759 47.7512 230.154 48.4719 227.825 49.8025C225.497 51.1331 223.667 53.018 222.337 55.3465C221.006 57.675 220.341 60.2807 220.341 63.1635C220.341 66.0464 220.951 68.7075 222.17 71.036C223.39 73.3645 225.109 75.194 227.271 76.5246C229.488 77.9106 231.872 78.5759 234.533 78.5759H234.977H248.227C248.948 78.5759 249.558 78.2987 250.112 77.7997C250.611 77.3007 250.888 76.6909 250.888 75.9147V75.5267V63.1635ZM227.049 68.4858C226.162 66.9335 225.774 65.1594 225.774 63.1635C225.774 61.2231 226.162 59.4491 227.049 57.8413C227.936 56.289 229.1 55.0139 230.597 54.1268C232.094 53.2398 233.757 52.7408 235.642 52.7408C237.472 52.7408 239.135 53.2398 240.632 54.1268C242.129 55.0139 243.293 56.289 244.18 57.8413C245.012 59.4491 245.455 61.2231 245.455 63.1635C245.455 65.1594 245.012 66.9335 244.18 68.4858C243.293 70.0381 242.129 71.3132 240.632 72.2003C239.135 73.0873 237.472 73.5308 235.642 73.5308C233.757 73.5308 232.094 73.0873 230.597 72.2003C229.1 71.3132 227.936 70.0381 227.049 68.4858Z" fill="white"/>
<path d="M286.007 52.7408C283.124 49.4144 279.465 47.7512 275.14 47.7512C272.257 47.7512 269.652 48.4165 267.379 49.7471C265.05 51.0776 263.276 52.9071 262.001 55.2356C260.726 57.5641 260.116 60.2252 260.116 63.1635C260.116 66.0464 260.726 68.7075 262.057 71.036C263.387 73.3645 265.217 75.194 267.545 76.5246C269.874 77.8551 272.479 78.5204 275.418 78.5204C279.409 78.5204 282.736 77.3007 285.397 74.8059C285.84 74.3624 286.062 73.8635 286.062 73.3091C286.062 72.5883 285.674 71.9231 285.009 71.3132C284.565 70.9806 284.066 70.8143 283.567 70.8143C282.902 70.8143 282.181 71.0915 281.516 71.5904C279.964 72.921 277.912 73.5308 275.418 73.5308C273.477 73.5308 271.758 73.0873 270.262 72.2003C268.765 71.3132 267.6 70.0935 266.769 68.5412C265.937 66.9889 265.549 65.1594 265.549 63.1635C265.549 60.0589 266.436 57.5087 268.21 55.6237C269.984 53.7387 272.257 52.7408 275.14 52.7408C276.526 52.7408 277.746 53.018 278.855 53.4615C279.964 53.9051 280.962 54.6258 281.904 55.6237C282.458 56.289 283.179 56.6216 284.066 56.6216C284.51 56.6216 284.953 56.5107 285.341 56.2335C286.117 55.6791 286.561 55.0139 286.561 54.1823C286.561 53.6279 286.339 53.1843 286.007 52.7408V52.7408Z" fill="white"/>
<path d="M319.283 49.359C317.232 48.2502 314.959 47.6958 312.409 47.6958C310.524 47.6958 308.805 48.0284 307.197 48.6937C305.534 49.359 304.148 50.246 302.984 51.4102V37.8274C302.984 36.9958 302.707 36.3306 302.208 35.7762C301.653 35.2772 300.988 35 300.157 35C299.325 35 298.66 35.2772 298.105 35.7762C297.551 36.3306 297.329 36.9958 297.329 37.8274V75.5266C297.329 76.3582 297.551 77.0235 298.105 77.5779C298.66 78.1323 299.325 78.3541 300.157 78.3541C300.988 78.3541 301.653 78.1323 302.208 77.5779C302.707 77.0235 302.984 76.3582 302.984 75.5266V59.8926C302.984 58.562 303.317 57.3978 304.037 56.289C304.758 55.2356 305.756 54.404 307.031 53.7387C308.306 53.1289 309.748 52.7962 311.3 52.7962C313.961 52.7962 316.068 53.5724 317.676 55.1247C319.283 56.677 320.115 58.8946 320.115 61.8884V75.5266C320.115 76.3582 320.337 77.0235 320.891 77.5779C321.445 78.1323 322.111 78.3541 322.942 78.3541C323.719 78.3541 324.384 78.1323 324.938 77.5779C325.493 77.0235 325.77 76.3582 325.77 75.5266V61.8884C325.77 58.8946 325.16 56.3444 324.051 54.2377C322.887 52.131 321.279 50.4678 319.283 49.359V49.359Z" fill="white"/>
<path d="M362.43 50.4123C362.43 49.4144 361.82 48.6937 360.711 48.2502C360.268 48.0838 359.824 47.973 359.381 47.973C358.383 47.973 357.662 48.5274 357.219 49.5807L348.293 69.7054L338.147 49.5253C337.593 48.5274 336.817 47.973 335.819 47.973C335.375 47.973 335.043 48.0838 334.71 48.1947C334.211 48.4165 333.823 48.7491 333.546 49.1372C333.213 49.5807 333.102 50.0242 333.102 50.4678C333.102 50.9113 333.158 51.2994 333.379 51.632L345.853 75.3049L340.309 87.7789C340.088 88.2224 339.977 88.6659 339.977 89.1094C339.977 90.1074 340.531 90.8281 341.64 91.2716C342.139 91.4934 342.583 91.6042 342.971 91.6042C343.969 91.6042 344.689 91.0498 345.133 89.8856L362.097 51.7429C362.319 51.2439 362.43 50.8004 362.43 50.4123Z" fill="white"/>
<path d="M390.216 49.7471C387.888 48.4165 385.282 47.7512 382.399 47.7512C379.406 47.7512 376.8 48.4165 374.472 49.7471C372.143 51.0776 370.314 52.8517 369.038 55.1802C367.708 57.5087 367.098 60.1698 367.098 63.1635C367.098 66.1573 367.708 68.763 369.038 71.0915C370.314 73.4199 372.143 75.2495 374.472 76.58C376.8 77.9106 379.406 78.5204 382.399 78.5204C385.338 78.5204 387.943 77.9106 390.272 76.58C392.6 75.2495 394.375 73.4199 395.705 71.0915C396.98 68.763 397.645 66.1573 397.645 63.1635C397.645 60.1698 396.98 57.5087 395.65 55.1802C394.319 52.8517 392.545 51.0776 390.216 49.7471ZM377.299 54.0714C378.796 53.1843 380.515 52.7408 382.399 52.7408C384.284 52.7408 385.948 53.1843 387.445 54.0714C388.941 54.9584 390.106 56.2335 390.937 57.7859C391.769 59.3936 392.212 61.1677 392.212 63.1635C392.212 65.1594 391.769 66.9889 390.937 68.5412C390.106 70.0935 388.941 71.3132 387.445 72.2003C385.948 73.0873 384.284 73.5308 382.399 73.5308C380.515 73.5308 378.796 73.0873 377.299 72.2003C375.802 71.3132 374.638 70.0935 373.806 68.5412C372.919 66.9889 372.531 65.1594 372.531 63.1635C372.531 61.1677 372.919 59.3936 373.806 57.7859C374.638 56.2335 375.802 54.9584 377.299 54.0714Z" fill="white"/>
<path d="M436.257 75.4712V50.7449C436.257 49.9133 435.979 49.248 435.48 48.6936C434.926 48.1947 434.261 47.9175 433.429 47.9175C432.598 47.9175 431.932 48.1947 431.378 48.6936C430.823 49.248 430.602 49.9133 430.602 50.7449V66.379C430.602 67.765 430.214 68.9292 429.493 69.9826C428.772 71.0914 427.774 71.923 426.499 72.5328C425.224 73.1981 423.783 73.4753 422.286 73.4753C419.569 73.4753 417.462 72.7546 415.855 71.2023C414.247 69.65 413.471 67.3769 413.471 64.3832V50.7449C413.471 49.9688 413.194 49.3035 412.639 48.7491C412.085 48.1947 411.419 47.9175 410.643 47.9175C409.812 47.9175 409.146 48.1947 408.592 48.7491C408.038 49.3035 407.816 49.9688 407.816 50.7449V64.3832C407.816 67.4324 408.37 69.9826 409.534 72.0893C410.643 74.196 412.251 75.8592 414.302 76.9126C416.243 78.0214 418.349 78.5758 420.678 78.6312C420.789 78.6312 425.058 78.6312 433.651 78.6312C434.372 78.6312 434.981 78.354 435.48 77.8551C435.979 77.3561 436.257 76.7463 436.257 75.9701V75.4712Z" fill="white"/>
<path d="M467.985 48.5274C466.876 47.973 465.324 47.6403 463.384 47.6403C461.499 47.6403 459.78 48.0284 458.172 48.7491C456.509 49.5253 455.179 50.5232 454.07 51.7983V50.745C454.07 48.9154 453.127 47.973 451.298 47.973C450.411 47.973 449.69 48.2502 449.247 48.6937C448.748 49.1926 448.526 49.8579 448.526 50.745V75.5266C448.526 76.4691 448.748 77.1898 449.247 77.6334C449.69 78.0769 450.411 78.2986 451.298 78.2986C452.185 78.2986 452.906 78.0769 453.349 77.5779C453.793 77.1344 454.07 76.4137 454.07 75.5266V59.3382C454.07 57.2869 454.846 55.6237 456.509 54.404C458.117 53.1843 460.279 52.5745 462.94 52.5745C463.827 52.5745 465.047 52.7408 466.544 52.9626C466.876 53.0734 467.154 53.0734 467.375 53.0734C468.484 53.0734 469.26 52.519 469.593 51.2994C469.593 51.1885 469.648 51.0222 469.648 50.745C469.648 49.8579 469.094 49.1372 467.985 48.5274V48.5274Z" fill="white"/>
<path d="M494.873 48.9155C492.988 48.1393 490.826 47.7512 488.442 47.7512C486.446 47.7512 484.617 48.0839 482.898 48.6937C481.124 49.359 479.738 50.3015 478.685 51.5211C477.576 52.7963 477.077 54.3486 477.077 56.1227C477.077 60.6133 480.625 63.5516 487.722 64.8822C490.438 65.4366 492.379 66.0464 493.543 66.8226C494.652 67.5987 495.261 68.5412 495.261 69.65C495.261 70.8697 494.652 71.8122 493.487 72.4775C492.323 73.1982 490.715 73.5308 488.609 73.5308C487.001 73.5308 485.504 73.2536 484.118 72.6992C482.677 72.1448 481.623 71.4241 480.958 70.6479C480.293 69.9827 479.572 69.65 478.851 69.65C478.241 69.65 477.576 69.9272 476.911 70.4262C476.135 70.9806 475.802 71.7013 475.802 72.5883C475.802 73.2536 476.024 73.8635 476.523 74.307C477.742 75.5821 479.516 76.58 481.734 77.3562C483.952 78.1323 486.28 78.5204 488.83 78.5204C491.325 78.5204 493.487 78.1323 495.261 77.3562C497.036 76.58 498.422 75.4712 499.364 74.0852C500.251 72.6992 500.75 71.1469 500.75 69.4283C500.75 67.1552 499.863 65.2703 498.2 63.8288C496.537 62.3874 493.654 61.2786 489.662 60.447C487.666 60.0589 486.169 59.6708 485.171 59.2273C484.118 58.7838 483.397 58.3403 483.065 57.8413C482.677 57.3423 482.51 56.7325 482.51 55.9563C482.51 54.9584 483.009 54.1268 484.118 53.5724C485.227 53.018 486.613 52.6854 488.331 52.6854C489.773 52.6854 491.048 52.9071 492.101 53.2398C493.099 53.5724 494.097 54.1823 495.04 55.0139C495.816 55.7346 496.647 56.0672 497.645 56.0672C498.255 56.0672 498.754 55.9563 499.198 55.6237C499.807 55.1247 500.14 54.5703 500.14 53.9051C500.14 53.3507 499.863 52.7408 499.419 52.131C498.311 50.8004 496.758 49.6916 494.873 48.9155V48.9155Z" fill="white"/>
<path d="M536.71 64.4387C537.154 63.9951 537.431 63.3853 537.431 62.6646C537.431 59.7817 536.877 57.176 535.768 54.903C534.659 52.6854 533.051 50.9113 531 49.6362C528.893 48.4165 526.454 47.7512 523.627 47.7512C520.744 47.7512 518.138 48.4165 515.865 49.7471C513.592 51.0776 511.818 52.9071 510.543 55.2356C509.268 57.5641 508.658 60.2252 508.658 63.1635C508.658 66.1573 509.323 68.763 510.654 71.0915C511.984 73.4199 513.869 75.2495 516.308 76.58C518.692 77.9106 521.409 78.5204 524.458 78.5204C526.121 78.5204 527.895 78.2432 529.78 77.5779C531.665 76.9681 533.218 76.1365 534.493 75.1386C535.047 74.6951 535.38 74.1407 535.38 73.4754C535.38 72.8101 535.047 72.1448 534.382 71.5904C533.938 71.2578 533.384 71.036 532.719 71.036C531.998 71.036 531.388 71.2578 530.889 71.6459C530.113 72.2557 529.115 72.7547 527.895 73.1427C526.676 73.5863 525.567 73.7526 524.458 73.7526C521.631 73.7526 519.247 72.9764 517.306 71.3687C515.366 69.8163 514.202 67.7096 513.814 65.1039H534.881C535.602 65.1039 536.211 64.8822 536.71 64.4387V64.4387ZM517.029 54.7367C518.692 53.2952 520.91 52.5191 523.627 52.5191C526.066 52.5191 528.006 53.2952 529.559 54.7367C531.055 56.2335 531.998 58.2294 532.331 60.6687H513.869C514.313 58.2294 515.366 56.2335 517.029 54.7367V54.7367Z" fill="white"/>
<path d="M546.621 35.7762C546.066 36.3306 545.845 36.9958 545.845 37.772V68.0422C545.845 70.0381 546.177 71.8122 546.898 73.3645C547.563 74.9168 548.561 76.1365 549.836 77.0235C551.112 77.9106 552.553 78.2986 554.161 78.2986H554.272C555.38 78.2986 556.267 78.0769 556.988 77.5225C557.653 77.0235 558.042 76.3582 558.042 75.5266C558.042 74.7505 557.764 74.0852 557.321 73.5308C556.877 73.0318 556.267 72.7546 555.547 72.7546H554.161C553.329 72.7546 552.664 72.3111 552.165 71.4241C551.61 70.537 551.389 69.4282 551.389 68.0422V37.772C551.389 36.9958 551.112 36.3306 550.613 35.7762C550.058 35.2772 549.393 35 548.617 35C547.785 35 547.12 35.2772 546.621 35.7762V35.7762Z" fill="white"/>
<path d="M566.493 49.0818V53.8496V75.4712C566.493 76.3582 566.715 77.0235 567.269 77.5225C567.824 78.0769 568.434 78.2986 569.21 78.2986C570.097 78.2986 570.817 78.0769 571.372 77.5225C571.871 77.0235 572.148 76.3582 572.148 75.4712V53.8496H577.803C578.579 53.8496 579.189 53.6278 579.688 53.1843C580.131 52.7408 580.409 52.1864 580.409 51.5211C580.409 50.8004 580.131 50.1906 579.688 49.747C579.189 49.3035 578.579 49.0818 577.803 49.0818H572.148V47.5849C572.148 45.3673 572.758 43.5378 574.033 42.1518C575.253 40.8212 576.916 40.1005 579.023 40.1005C579.799 40.1005 580.464 39.8787 581.018 39.3798C581.573 38.9362 581.85 38.3264 581.85 37.5502C581.85 36.8295 581.573 36.2197 581.018 35.7207C580.464 35.2772 579.799 35 579.023 35C576.528 35 574.366 35.5544 572.481 36.6632C570.596 37.772 569.099 39.2689 568.045 41.2647C566.992 43.2606 566.493 45.5336 566.493 48.1393V49.0818Z" fill="white"/>
<rect x="68" y="42" width="49" height="49" fill="#FF5D5D" fill-opacity="0.5"/>
<line y1="-0.5" x2="29.2439" y2="-0.5" transform="matrix(0.795815 -0.60554 0.84378 0.53669 68 42.4167)" stroke="black"/>
<line y1="-0.5" x2="28.6685" y2="-0.5" transform="matrix(0.786419 -0.617693 0.851357 0.524587 117.455 42.4167)" stroke="black"/>
<line y1="-0.5" x2="28.6685" y2="-0.5" transform="matrix(0.786419 -0.617693 0.851357 0.524587 106.545 42.4167)" stroke="black"/>
<line y1="-0.5" x2="28.6685" y2="-0.5" transform="matrix(0.786419 -0.617693 0.851357 0.524587 99.2727 42.4167)" stroke="black"/>
<line y1="-0.5" x2="28.6685" y2="-0.5" transform="matrix(0.786419 -0.617693 0.851357 0.524587 94.9091 42.4167)" stroke="black"/>
<line y1="-0.5" x2="28.6685" y2="-0.5" transform="matrix(0.786419 -0.617693 0.851357 0.524587 92 42.4167)" stroke="black"/>
<line y1="-0.5" x2="28.6685" y2="-0.5" transform="matrix(0.786419 -0.617693 0.851357 0.524587 88.3636 42.4167)" stroke="black"/>
<line y1="-0.5" x2="28.6685" y2="-0.5" transform="matrix(0.786419 -0.617693 0.851357 0.524587 84 42.4167)" stroke="black"/>
<line y1="-0.5" x2="28.6685" y2="-0.5" transform="matrix(0.786419 -0.617693 0.851357 0.524587 81.0909 42.4167)" stroke="black"/>
<line y1="-0.5" x2="28.6685" y2="-0.5" transform="matrix(0.786419 -0.617693 0.851357 0.524587 78.1819 42.4167)" stroke="black"/>
<line y1="-0.5" x2="28.6685" y2="-0.5" transform="matrix(0.786419 -0.617693 0.851357 0.524587 74.5454 42.4167)" stroke="black"/>
<line y1="-0.5" x2="28.6685" y2="-0.5" transform="matrix(0.786419 -0.617693 0.851357 0.524587 71.6364 42.4167)" stroke="black"/>
<line y1="-0.5" x2="28.6685" y2="-0.5" transform="matrix(0.786419 -0.617693 0.851357 0.524587 86.1819 42.4167)" stroke="black"/>
<line y1="-0.5" x2="28.6685" y2="-0.5" transform="matrix(0.786419 -0.617693 0.851357 0.524587 102.909 42.4167)" stroke="black"/>
<line y1="-0.5" x2="28.6685" y2="-0.5" transform="matrix(0.786419 -0.617693 0.851357 0.524587 114.545 42.4167)" stroke="black"/>
<line y1="-0.5" x2="28.6685" y2="-0.5" transform="matrix(0.786419 -0.617693 0.851357 0.524587 110.909 42.4167)" stroke="black"/>
<line y1="-0.5" x2="33.3588" y2="-0.5" transform="matrix(0.669089 -0.743182 0.753934 0.65695 68 92)" stroke="black"/>
<line y1="-0.5" x2="43.2143" y2="-0.5" transform="matrix(-0.0164265 0.999865 -0.999874 -0.0158986 90.3201 24)" stroke="black"/>
<line x1="116.5" y1="91" x2="116.5" y2="42" stroke="black"/>
<line x1="68" y1="41.5" x2="117" y2="41.5" stroke="black"/>
<line x1="67.5" y1="91" x2="67.5" y2="42" stroke="black"/>
<line y1="-0.5" x2="43.2143" y2="-0.5" transform="matrix(-0.0166611 0.999861 -0.99987 -0.0161257 139.28 24)" stroke="black"/>
<line y1="-0.5" x2="32.8358" y2="-0.5" transform="matrix(0.679746 -0.733448 0.744407 0.667726 116.96 91.2917)" stroke="black"/>
</svg>
